<svg xmlns="http://www.w3.org/2000/svg" width="20" height="18" viewBox="0 0 20 18"><g><g><g><path fill="#927ee1" d="M16.328 16.164c-.953 0-1.728-.79-1.728-1.762s.775-1.763 1.728-1.763c.952 0 1.727.79 1.727 1.763 0 .972-.775 1.762-1.727 1.762zm-12.452 0c-.756 0-1.4-.498-1.633-1.19h3.266a1.733 1.733 0 0 1-1.633 1.19zM1.726 8.19a.61.61 0 0 1-.604-.615c0-.34.27-.616.603-.616h5.056c.648 0 1.175.538 1.175 1.199-.005.023-.042.039-.11.032H1.724zm-.523 5.639zm.744-1.585a2.68 2.68 0 0 1 2.004-.862c1.447 0 2.616 1.037 2.867 2.447H1.203c.098-.61.354-1.159.744-1.585zm6.915.326h2.266c.636 0 1.152-.527 1.152-1.175v-3.26c0-.984.678-1.81 1.582-2.017l.757 3.662v2.296a2.92 2.92 0 0 0-1.085 1.753H7.955c-.262-2.055-1.927-3.592-4.004-3.592-.927 0-1.758.308-2.415.839.542-1.035 1.611-1.74 2.839-1.74h2.688l.694 2.392c.144.496.598.842 1.105.842zm3.354-9.08h2.027c.385 0 .699.32.699.714a.707.707 0 0 1-.699.713h-2.027zm4.443 8.024a2.805 2.805 0 0 0-.918.042v-1.263h.441c.822 0 1.502.504 1.74 1.22zm1.947 1.144a.567.567 0 0 0 .53-.572c0-1.648-1.297-2.939-2.954-2.939h-.547l-.67-3.237a1.862 1.862 0 0 0 1.1-1.706c0-1.025-.818-1.859-1.822-1.859h-2.589a.567.567 0 0 0-.56.573v.713h-1.38a.567.567 0 0 0-.561.573c0 .316.251.573.56.573h1.38v.713c0 .316.252.573.561.573h.25a3.238 3.238 0 0 0-.746 2.073v3.259a.03.03 0 0 1-.03.03H8.862a.03.03 0 0 1-.029-.022l-.611-2.107c.492-.135.856-.594.856-1.138 0-1.293-1.03-2.344-2.297-2.344H1.725c-.95 0-1.725.79-1.725 1.76 0 .888.647 1.624 1.485 1.744a4.459 4.459 0 0 0-1.45 3.3v1.784c0 .316.252.572.562.572h.485c.262 1.33 1.415 2.336 2.794 2.336s2.532-1.005 2.794-2.336h6.864c.261 1.33 1.414 2.336 2.794 2.336 1.57 0 2.85-1.305 2.85-2.908 0-.654-.213-1.258-.572-1.744z"/></g><g><path fill="#927ee1" d="M15.756 14.45a.566.566 0 1 1 1.132 0 .566.566 0 0 1-1.132 0z"/></g><g><path fill="#927ee1" d="M.586 4.123h5.043a.563.563 0 0 0 0-1.126H.586a.563.563 0 0 0 0 1.126z"/></g><g><path fill="#927ee1" d="M2.454 1.816h5.087a.563.563 0 0 0 0-1.126H2.454a.563.563 0 0 0 0 1.126z"/></g></g></g></svg>