<svg xmlns="http://www.w3.org/2000/svg" width="20" height="18" viewBox="0 0 20 18"><g><g><g><path fill="#927ee1" d="M18.248 4.658H2.068V3.68c0-.825.672-1.496 1.498-1.496H16.75c.826 0 1.498.671 1.498 1.496zM16.75.69H3.566A2.997 2.997 0 0 0 .569 3.68v8.076a2.997 2.997 0 0 0 2.997 2.991h4.607a.748.748 0 1 0 0-1.495H3.566c-.826 0-1.498-.671-1.498-1.496V6.153h16.18v1.832a.748.748 0 0 0 1.498 0V3.681A2.997 2.997 0 0 0 16.75.69z"/></g><g><path fill="#927ee1" d="M19.436 10.401a.742.742 0 0 0-1.035.171l-3.656 5.108a.42.42 0 0 1-.292.145.417.417 0 0 1-.318-.113l-2.368-2.273a.742.742 0 1 0-1.027 1.07l2.37 2.275a1.913 1.913 0 0 0 1.441.522 1.913 1.913 0 0 0 1.385-.741l3.672-5.129a.742.742 0 0 0-.172-1.035z"/></g></g></g></svg>