<svg xmlns="http://www.w3.org/2000/svg" width="26" height="26" viewBox="0 0 26 26"><g><g><g><path fill="#927ee1" d="M23.636 13c0 5.91-4.727 10.637-10.636 10.637A10.592 10.592 0 0 1 2.364 13C2.364 7.091 7.09 2.364 13 2.364c5.91 0 10.636 4.727 10.636 10.636zM26 13c0-7.209-5.79-13-13-13S0 5.791 0 13c0 7.21 5.79 13 13 13s13-5.79 13-13z"/></g><g><path fill="#927ee1" d="M13 18.974c-.717 0-1.195-.478-1.195-1.194V8.22c0-.716.478-1.194 1.195-1.194.717 0 1.195.478 1.195 1.194v9.559c0 .716-.478 1.194-1.195 1.194z"/></g><g><path fill="#927ee1" d="M17.779 14.195H8.221c-.717 0-1.195-.478-1.195-1.195 0-.716.478-1.194 1.195-1.194h9.558c.717 0 1.195.478 1.195 1.194 0 .717-.478 1.195-1.195 1.195z"/></g></g></g></svg>