<svg xmlns="http://www.w3.org/2000/svg" width="30" height="31" viewBox="0 0 30 31"><g><g><g><path fill="#927ee1" d="M19.685 18.692c-.166.213-.363.445-.57.69l-.041.05c-.894 1.057-1.907 2.257-2.318 3.751-.058.212-.123.53-.139 1.14h-3.276c-.014-.648-.08-.98-.14-1.204-.41-1.514-1.422-2.696-2.235-3.645l-.013-.016c-.23-.268-.447-.522-.64-.768a5.944 5.944 0 0 1-1.274-3.696c0-3.31 2.674-6.001 5.961-6.001 3.287 0 5.961 2.692 5.961 6a5.944 5.944 0 0 1-1.276 3.7zM15 6.96c-4.401 0-7.982 3.604-7.982 8.035 0 1.813.59 3.526 1.707 4.953.22.283.452.553.697.84l.014.015c.75.876 1.526 1.782 1.815 2.85.066.244.075.713.071 1.074v.614c0 .561.453 1.017 1.01 1.017h5.292c.558 0 1.01-.456 1.01-1.017v-.621c-.003-.472.021-.816.07-.995.292-1.06 1.151-2.077 1.917-2.983l.033-.04c.22-.26.43-.507.62-.75a7.967 7.967 0 0 0 1.708-4.957c0-4.43-3.58-8.035-7.982-8.035z"/></g><g><path fill="#927ee1" d="M17.641 26.646h-5.326a1.017 1.017 0 0 0 0 2.034h5.326a1.017 1.017 0 1 0 0-2.034z"/></g><g><path fill="#927ee1" d="M16.31 28.966h-2.663a1.017 1.017 0 0 0 0 2.034h2.663a1.017 1.017 0 0 0 0-2.034z"/></g><g><path fill="#927ee1" d="M28.983 14.007h-3.509a1.017 1.017 0 0 0 0 2.034h3.509a1.017 1.017 0 0 0 0-2.034z"/></g><g><path fill="#927ee1" d="M5.543 15.024c0-.562-.455-1.017-1.017-1.017H1.017a1.017 1.017 0 0 0 0 2.034h3.51c.561 0 1.016-.455 1.016-1.017z"/></g><g><path fill="#927ee1" d="M15 5.544c.562 0 1.017-.455 1.017-1.017v-3.51a1.017 1.017 0 0 0-2.034 0v3.51c0 .562.455 1.017 1.017 1.017z"/></g><g><path fill="#927ee1" d="M23.11 21.728a1.017 1.017 0 0 0-1.439 1.439l2.481 2.482a1.014 1.014 0 0 0 1.439 0 1.017 1.017 0 0 0 0-1.439z"/></g><g><path fill="#927ee1" d="M6.89 8.328a1.014 1.014 0 0 0 1.437 0 1.017 1.017 0 0 0 0-1.438l-2.48-2.481A1.017 1.017 0 1 0 4.41 5.847z"/></g><g><path fill="#927ee1" d="M6.89 21.728L4.41 24.21a1.017 1.017 0 1 0 1.438 1.438l2.482-2.481a1.017 1.017 0 1 0-1.439-1.439z"/></g><g><path fill="#927ee1" d="M22.39 8.626c.261 0 .522-.1.72-.298l2.48-2.481a1.017 1.017 0 1 0-1.438-1.438l-2.48 2.48a1.017 1.017 0 0 0 .719 1.737z"/></g></g></g></svg>