<svg xmlns="http://www.w3.org/2000/svg" width="31" height="33" viewBox="0 0 31 33"><g><g><g><path fill="#927ee1" d="M29.043 30.114a.974.974 0 0 1-.972.972H2.917a.974.974 0 0 1-.972-.972V2.886c0-.536.436-.972.972-.972h25.154c.536 0 .972.436.972.972zM28.071-.031H2.917A2.92 2.92 0 0 0 0 2.886v27.228a2.92 2.92 0 0 0 2.917 2.917h25.154a2.92 2.92 0 0 0 2.917-2.917V2.886a2.92 2.92 0 0 0-2.917-2.917z"/></g><g><path fill="#927ee1" d="M24.959 10.374H6.029V6.506h18.93zm.972-5.813H5.057a.972.972 0 0 0-.973.972v5.813c0 .537.436.973.973.973H25.93a.972.972 0 0 0 .973-.973V5.533a.972.972 0 0 0-.973-.972z"/></g><g><path fill="#927ee1" d="M9.076 18.65H7.131v-1.945h1.945zm.972-3.89h-3.89a.972.972 0 0 0-.972.973v3.89c0 .537.436.972.973.972h3.89a.972.972 0 0 0 .972-.972v-3.89a.972.972 0 0 0-.973-.973z"/></g><g><path fill="#927ee1" d="M9.076 26.494H7.131V24.55h1.945zm.972-3.89h-3.89a.972.972 0 0 0-.972.973v3.89c0 .537.436.972.973.972h3.89a.972.972 0 0 0 .972-.972v-3.89a.972.972 0 0 0-.973-.972z"/></g><g><path fill="#927ee1" d="M17.017 18.65h-1.944v-1.945h1.944zm.973-3.89H14.1a.972.972 0 0 0-.972.973v3.89c0 .537.435.972.972.972h3.89a.972.972 0 0 0 .972-.972v-3.89a.972.972 0 0 0-.972-.973z"/></g><g><path fill="#927ee1" d="M17.017 26.494h-1.944V24.55h1.944zm.973-3.89H14.1a.972.972 0 0 0-.972.973v3.89c0 .537.435.972.972.972h3.89a.972.972 0 0 0 .972-.972v-3.89a.972.972 0 0 0-.972-.972z"/></g><g><path fill="#927ee1" d="M24.959 26.494h-1.945v-9.789h1.945zm.972-11.734h-3.89a.972.972 0 0 0-.972.973v11.734c0 .537.436.972.973.972h3.89a.972.972 0 0 0 .972-.972V15.733a.972.972 0 0 0-.973-.973z"/></g></g></g></svg>