<svg xmlns="http://www.w3.org/2000/svg" width="30" height="26" viewBox="0 0 30 26"><g><g><path fill="#927ee1" d="M26.671 18.928a.863.863 0 0 1-1.2.333l-4.567-2.733a.862.862 0 0 0-1.201.333.93.93 0 0 0 .322 1.245l3.552 2.126a.93.93 0 0 1 .321 1.245.863.863 0 0 1-1.2.333l-3.552-2.126a.862.862 0 0 0-1.2.334.93.93 0 0 0 .32 1.244l2.03 1.215a.93.93 0 0 1 .322 1.245.863.863 0 0 1-1.2.334l-3.308-1.98c.574-1.27.124-2.81-1.07-3.525a2.553 2.553 0 0 0-1.145-.36c.05-.994-.425-1.983-1.313-2.515a2.553 2.553 0 0 0-1.145-.36c.05-.994-.426-1.983-1.314-2.514a2.56 2.56 0 0 0-2.757.078 2.661 2.661 0 0 0-.873-.849 2.568 2.568 0 0 0-3.084.338l-1.353-.81 4.156-8.034 2.211 1.323-.025.015a2.706 2.706 0 0 0-1.228 1.66 2.803 2.803 0 0 0 .263 2.074c.352.633.921 1.085 1.601 1.274.68.189 1.391.092 2.001-.273l4.42-2.645 11.637 6.966a.93.93 0 0 1 .322 1.245.863.863 0 0 1-1.2.333l-3.553-2.126a.862.862 0 0 0-1.2.334.93.93 0 0 0 .321 1.244l4.567 2.734a.93.93 0 0 1 .322 1.245zm-14.267 4.358a.93.93 0 0 1-.322-1.245l.88-1.578a.863.863 0 0 1 1.2-.333.93.93 0 0 1 .321 1.244l-.878 1.579a.863.863 0 0 1-1.201.333zm-3.045-1.822a.93.93 0 0 1-.321-1.245l1.464-2.63a.863.863 0 0 1 1.201-.334.93.93 0 0 1 .322 1.245l-1.465 2.63a.863.863 0 0 1-1.2.334zM6.315 19.64a.93.93 0 0 1-.322-1.245l2.05-3.682a.863.863 0 0 1 1.201-.334.93.93 0 0 1 .322 1.245l-2.05 3.683a.863.863 0 0 1-1.201.333zM3.27 17.82a.93.93 0 0 1-.322-1.245l1.465-2.63a.863.863 0 0 1 1.2-.334.93.93 0 0 1 .323 1.245l-1.465 2.63a.863.863 0 0 1-1.2.334zM15.43 2.758a1.415 1.415 0 0 1 1.239-.11l3.265 1.245c.244.093.516.069.742-.066l2.797-1.674 4.51 7.969-1.533 1.308-10.556-6.319a.852.852 0 0 0-.88 0L10.157 8.02c-.404.253-.973.095-1.2-.334-.245-.42-.093-1.009.321-1.245zM29.88 9.87L24.547.45A.862.862 0 0 0 23.35.122l-3.196 1.913L17.276.937a3.113 3.113 0 0 0-2.724.243L10.18 3.796l-3.875-2.32a.852.852 0 0 0-.68-.087.886.886 0 0 0-.534.446l-4.988 9.64a.93.93 0 0 0 .335 1.22l1.98 1.185-.993 1.783c-.727 1.305-.294 2.98.965 3.734.585.35 1.246.44 1.86.306a2.705 2.705 0 0 0 1.185 1.516c.584.35 1.245.44 1.859.307a2.705 2.705 0 0 0 1.185 1.516c.585.35 1.246.44 1.86.306a2.705 2.705 0 0 0 1.185 1.516c1.26.754 2.875.305 3.602-1l.113-.204 3.299 1.974c1.259.754 2.874.305 3.601-1 .172-.309.278-.637.325-.97 1.121.307 2.348-.185 2.956-1.276a2.79 2.79 0 0 0 .346-1.187 2.617 2.617 0 0 0 2.426-1.362 2.822 2.822 0 0 0-.075-2.859c.326-.225.61-.53.818-.905.707-1.27.317-2.888-.863-3.67l1.606-1.37a.934.934 0 0 0 .2-1.165z"/></g></g></svg>