<svg xmlns="http://www.w3.org/2000/svg" width="30" height="30" viewBox="0 0 30 30"><g><g><g><g><g><path fill="#927ee1" d="M28.066 17.31l-4.22 5.64a4.41 4.41 0 0 1-3.515 1.763h-11L6.04 18.109l1.663-1.468a4.397 4.397 0 0 1 5.806 0c.975.86 1.582 1.023 2.213 1.023h4.61a.881.881 0 0 1 0 1.762h-4.489a.88.88 0 0 0 0 1.763h5.078a2.64 2.64 0 0 0 1.93-.842l3.869-4.164a.88.88 0 1 1 1.347 1.128zM7.702 27.357l-1.157.58-4.487-8.997 1.158-.58a.877.877 0 0 1 1.179.394l3.7 7.421a.882.882 0 0 1-.393 1.182zm21.36-12.594c-1.004-.829-2.589-.9-3.63.22l-2.583 2.78a2.642 2.642 0 0 0-2.518-1.86h-4.61c-.35 0-.467-.134-1.074-.603a6.153 6.153 0 0 0-8.106.02l-1.695 1.495a2.62 2.62 0 0 0-2.417-.03l-1.943.973a.883.883 0 0 0-.393 1.182l5.273 10.574a.879.879 0 0 0 1.18.394l1.943-.975a2.642 2.642 0 0 0 1.456-2.457h10.386a6.176 6.176 0 0 0 4.922-2.467l4.219-5.64c.818-1.093.689-2.696-.41-3.606z"/></g></g></g><g><g><g><path fill="#927ee1" d="M12.352 10.69c0-1.942 1.641-3.583 3.584-3.583s3.524 1.607 3.524 3.583zm3.584-8.928c.955 0 1.762.834 1.762 1.821 0 .972-.79 1.762-1.762 1.762-.987 0-1.821-.807-1.821-1.762 0-.97.85-1.82 1.82-1.82zm2.549 4.25a3.51 3.51 0 0 0 .975-2.43C19.46 1.644 17.893 0 15.936 0c-1.943 0-3.584 1.64-3.584 3.583 0 .913.358 1.774 1.008 2.436-1.611.904-2.77 2.638-2.77 4.671v.882c0 .486.395.88.881.88h8.87a.881.881 0 0 0 .881-.88v-.882a5.371 5.371 0 0 0-2.737-4.678z"/></g></g></g></g></g></svg>