<svg xmlns="http://www.w3.org/2000/svg" width="33" height="32" viewBox="0 0 33 32"><g><g><path fill="#927ee1" d="M26.17 10.093l-1.771 1.771 2.88 2.88H11.08v2.505H27.28l-2.88 2.88 1.77 1.77 5.904-5.903zm-6.073 18.174c0 .69-.562 1.253-1.252 1.253H3.756c-.69 0-1.252-.562-1.252-1.253V3.725c0-.69.562-1.252 1.252-1.252h15.089c.69 0 1.252.562 1.252 1.252v5.009H22.6V3.725A3.76 3.76 0 0 0 18.845-.03H3.756A3.76 3.76 0 0 0 0 3.725v24.542a3.76 3.76 0 0 0 3.756 3.757h15.089a3.76 3.76 0 0 0 3.756-3.757V23.26h-2.504z"/></g></g></svg>