<svg xmlns="http://www.w3.org/2000/svg" width="30" height="25" viewBox="0 0 30 25"><g><g><g><path fill="#927ee1" d="M25.669 12.426c-2.253 2.503-8.446 7.665-10.67 9.497-2.223-1.831-8.415-6.993-10.667-9.496C2.122 9.97 2.1 6.472 4.284 4.289a5.701 5.701 0 0 1 4.042-1.672 5.7 5.7 0 0 1 4.043 1.672l1.666 1.665c.198.198.448.317.71.358.426.092.888-.027 1.219-.357l1.666-1.666a5.725 5.725 0 0 1 8.086 0c2.183 2.183 2.162 5.681-.047 8.137zm1.92-10.01c-3.262-3.262-8.57-3.262-11.832 0L15 3.172l-.757-.758c-3.262-3.262-8.57-3.262-11.832 0-3.196 3.196-3.217 8.261-.048 11.783 2.89 3.211 11.412 10.149 11.773 10.442.246.2.541.297.835.297h.028c.304.014.61-.09.864-.297.361-.293 8.884-7.23 11.775-10.442 3.168-3.522 3.147-8.587-.048-11.783z"/></g></g></g></svg>