<svg xmlns="http://www.w3.org/2000/svg" width="30" height="30" viewBox="0 0 30 30"><g><g clip-path="url(#clip-2fc47c5e-4bee-4f65-9ab8-e46925c7d7c8)"><g><path fill="#f3c4f8" d="M15 30C6.716 30 0 23.284 0 15 0 6.716 6.716 0 15 0c8.284 0 15 6.716 15 15 0 8.284-6.716 15-15 15z"/></g><g><path fill="#fff" d="M25 14.09v2.183c0 .303-.106.56-.318.772-.212.213-.47.319-.773.319h-2.182c-.303 0-.56-.106-.773-.319a1.052 1.052 0 0 1-.318-.772V14.09c0-.303.106-.561.318-.773.212-.212.47-.318.773-.318h2.182c.303 0 .56.106.773.318.212.212.318.47.318.773zm-7.818 0v2.183c0 .303-.106.56-.318.772-.213.213-.47.319-.773.319h-2.182c-.303 0-.56-.106-.773-.319a1.052 1.052 0 0 1-.318-.772V14.09c0-.303.106-.561.318-.773.212-.212.47-.318.773-.318h2.182c.303 0 .56.106.773.318.212.212.318.47.318.773zm-7.818 0v2.183c0 .303-.107.56-.319.772-.212.213-.47.319-.773.319h-2.18c-.304 0-.562-.106-.774-.319A1.052 1.052 0 0 1 5 16.273V14.09c0-.303.106-.561.318-.773.212-.212.47-.318.773-.318h2.182c.303 0 .56.106.773.318.212.212.318.47.318.773z"/></g></g></g></svg>