<svg xmlns="http://www.w3.org/2000/svg" width="30" height="30" viewBox="0 0 30 30"><g><g><g><path fill="#927ee1" d="M19.063 1.875c.86 0 1.562.701 1.562 1.563v21.875c0 1.053.35 2.028.94 2.812H4.687a2.815 2.815 0 0 1-2.812-2.813V3.438c0-.86.701-1.562 1.563-1.562zm7.5 3.75c.86 0 1.562.701 1.562 1.563v18.125a2.815 2.815 0 0 1-2.813 2.812 2.815 2.815 0 0 1-2.812-2.813V5.625zm-.69 24.341A4.694 4.694 0 0 0 30 25.312V7.188a3.44 3.44 0 0 0-3.438-3.437H22.5v-.313A3.44 3.44 0 0 0 19.062 0H3.438A3.44 3.44 0 0 0 0 3.438v21.875A4.692 4.692 0 0 0 4.688 30h20.937c.086 0 .17-.011.249-.034z"/></g><g><path fill="#927ee1" d="M4.5 4.5h3v3h-3zM9 8.25v-4.5A.75.75 0 0 0 8.25 3h-4.5a.75.75 0 0 0-.75.75v4.5c0 .414.336.75.75.75h4.5A.75.75 0 0 0 9 8.25z"/></g><g><path fill="#927ee1" d="M17.55 6.567h-2.5a.75.75 0 0 1 0-1.5h2.5a.75.75 0 0 1 0 1.5z"/></g><g><path fill="#927ee1" d="M17.55 10.367h-2.5a.75.75 0 0 1 0-1.5h2.5a.75.75 0 0 1 0 1.5z"/></g><g><path fill="#927ee1" d="M14.25 15.433H3.75a.75.75 0 0 1 0-1.5h10.5a.75.75 0 0 1 0 1.5z"/></g><g><path fill="#927ee1" d="M14.25 20.183H3.75a.75.75 0 0 1 0-1.5h10.5a.75.75 0 0 1 0 1.5z"/></g><g><path fill="#927ee1" d="M14.25 24.933H3.75a.75.75 0 0 1 0-1.5h10.5a.75.75 0 0 1 0 1.5z"/></g></g></g></svg>