<svg xmlns="http://www.w3.org/2000/svg" width="30" height="29" viewBox="0 0 30 29"><g><g><g><path fill="#927ee1" d="M5.684 10.902L4.782 10 3.54 11.243l2.145 2.145 3.61-3.61-1.243-1.243z"/></g><g><path fill="#927ee1" d="M5.684 16.965l-.902-.902-1.243 1.243 2.145 2.145 3.61-3.61-1.243-1.243z"/></g><g><path fill="#927ee1" d="M3.868 22.225h5.098v1.758H3.868z"/></g><g><path fill="#927ee1" d="M11.193 9.8H18.4v1.758h-7.208z"/></g><g><path fill="#927ee1" d="M11.193 15.634H18.4v1.758h-7.208z"/></g><g><path fill="#927ee1" d="M24.209 18.346l1.568-1.57 1.764 1.826-1.532 1.536zm-5.295 8.904h-1.802v-1.798l5.857-5.865 1.8 1.793zm-3.56 0H1.758V1.75h13.596v6.127h6.153V18.57l-6.153 6.16zm1.758-24.196l2.956 3.073h-2.956zm8.686 11.218l-2.533 2.536V6.92L16.608 0H0v29h19.646L30 18.621z"/></g></g></g></svg>