<svg xmlns="http://www.w3.org/2000/svg" width="20" height="22" viewBox="0 0 20 22"><g><g><path fill="#927ee1" d="M20 17.9c0 1.114-.376 2.047-1.129 2.8-.752.752-1.686 1.128-2.8 1.128-1.286 0-2.405-.476-3.357-1.428L1.614 9.314C.538 8.218 0 6.928 0 5.442c0-1.515.524-2.8 1.571-3.857C2.62.528 3.9-.001 5.414-.001c1.505 0 2.805.538 3.9 1.614l8.643 8.657c.096.096.143.2.143.315 0 .152-.145.374-.436.664-.29.29-.512.436-.664.436a.451.451 0 0 1-.329-.142L8.014 2.87c-.752-.734-1.614-1.1-2.586-1.1-1.009 0-1.861.357-2.556 1.071-.696.714-1.043 1.576-1.043 2.586 0 1 .361 1.862 1.085 2.585L14 19.113c.6.6 1.29.9 2.072.9.61 0 1.114-.199 1.514-.599.4-.4.6-.904.6-1.514 0-.781-.3-1.471-.9-2.071l-8.3-8.301a1.225 1.225 0 0 0-.857-.344.93.93 0 0 0-.686.272.93.93 0 0 0-.271.685c0 .305.119.586.357.843l5.857 5.857c.095.095.143.2.143.315 0 .152-.148.376-.444.672-.295.295-.519.443-.671.443a.438.438 0 0 1-.315-.143L6.243 10.27a2.85 2.85 0 0 1-.9-2.128c0-.781.271-1.443.814-1.986.543-.543 1.205-.814 1.986-.814.838 0 1.548.3 2.128.9l8.3 8.3C19.524 15.475 20 16.595 20 17.9z"/></g></g></svg>