<svg xmlns="http://www.w3.org/2000/svg" width="30" height="27" viewBox="0 0 30 27"><g><g><path fill="#927ee1" d="M19.11 17.824a1.168 1.168 0 0 1-1.43-.843 2.367 2.367 0 0 0-2.294-1.771h-.655c-1.08 0-2.023.728-2.293 1.77a1.171 1.171 0 1 1-2.268-.594 4.714 4.714 0 0 1 4.56-3.534h.656a4.714 4.714 0 0 1 4.561 3.534 1.18 1.18 0 0 1-.838 1.438zm-3.876-11.34c-.743 0-1.347.609-1.347 1.357 0 .747.604 1.356 1.347 1.356.744 0 1.348-.609 1.348-1.356 0-.748-.604-1.356-1.348-1.356zm0 5.07c-2.035 0-3.691-1.666-3.691-3.713 0-2.048 1.656-3.714 3.691-3.714 2.036 0 3.692 1.666 3.692 3.714 0 2.047-1.656 3.714-3.692 3.714zM3.516 22.285c-.647 0-1.172.529-1.172 1.179s.525 1.179 1.172 1.179h22.968c.647 0 1.172-.529 1.172-1.18 0-.65-.525-1.178-1.172-1.178zM30 23.463C30 25.413 28.423 27 26.484 27H3.516C1.577 27 0 25.413 0 23.463s1.577-3.537 3.516-3.537h22.968c1.939 0 3.516 1.587 3.516 3.537zm-3.516-5.6a1.175 1.175 0 0 1-1.171-1.18V7.074c0-2.6-2.103-4.716-4.688-4.716H9.375c-2.585 0-4.687 2.116-4.687 4.716v9.61c0 .65-.525 1.178-1.172 1.178a1.175 1.175 0 0 1-1.172-1.179V7.074C2.344 3.174 5.498 0 9.375 0h11.25c3.877 0 7.031 3.174 7.031 7.074v9.61c0 .65-.524 1.178-1.172 1.178z"/></g></g></svg>