<svg xmlns="http://www.w3.org/2000/svg" width="30" height="30" viewBox="0 0 30 30"><g><g><path fill="#927ee1" d="M30 6.136v17.728c0 1.69-.6 3.135-1.8 4.335-1.201 1.2-2.647 1.8-4.337 1.8H6.137C4.446 30 3 29.4 1.8 28.2.6 26.997 0 25.552 0 23.862V6.137C0 4.446.6 3 1.8 1.8 3.002.6 4.448 0 6.138 0h17.727c1.69 0 3.135.6 4.335 1.8C29.4 3.002 30 4.448 30 6.138zm-2.727 17.727V6.136A3.28 3.28 0 0 0 26.27 3.73a3.287 3.287 0 0 0-2.407-1.002H6.137A3.28 3.28 0 0 0 3.729 3.73a3.287 3.287 0 0 0-1.002 2.407v17.727c0 .938.334 1.74 1.002 2.408a3.287 3.287 0 0 0 2.408 1.002h17.727a3.28 3.28 0 0 0 2.407-1.002 3.287 3.287 0 0 0 1.002-2.408zm-2.728-9.545v1.363a.664.664 0 0 1-.192.49.664.664 0 0 1-.49.192h-7.5v7.5a.664.664 0 0 1-.192.49.664.664 0 0 1-.49.191h-1.363a.664.664 0 0 1-.49-.191.664.664 0 0 1-.192-.49v-7.5h-7.5a.664.664 0 0 1-.49-.192.664.664 0 0 1-.191-.49v-1.363c0-.199.064-.362.192-.49a.664.664 0 0 1 .49-.192h7.5v-7.5c0-.198.063-.362.19-.49a.664.664 0 0 1 .49-.191h1.364c.2 0 .362.064.49.192a.664.664 0 0 1 .192.49v7.5h7.5c.199 0 .362.063.49.191a.664.664 0 0 1 .191.49z"/></g></g></svg>