<svg xmlns="http://www.w3.org/2000/svg" width="30" height="30" viewBox="0 0 30 30"><g><g><path fill="#927ee1" d="M9.14 13.535a1.465 1.465 0 1 0 0 2.93 1.465 1.465 0 0 0 0-2.93zm11.72 0a1.465 1.465 0 1 0 0 2.93 1.465 1.465 0 0 0 0-2.93zm-5.86 0a1.465 1.465 0 1 0 0 2.93 1.465 1.465 0 0 0 0-2.93zm0 14.121a12.62 12.62 0 0 1-6.7-1.917 1.173 1.173 0 0 0-.98-.122l-4.332 1.395 1.395-4.332a1.173 1.173 0 0 0-.122-.98A12.621 12.621 0 0 1 2.344 15C2.344 8.021 8.02 2.344 15 2.344c6.979 0 12.656 5.677 12.656 12.656 0 6.979-5.677 12.656-12.656 12.656zM15 0C6.71 0 0 6.709 0 15c0 2.631.686 5.2 1.99 7.467L.056 28.469a1.172 1.172 0 0 0 1.474 1.474l6.002-1.932A14.965 14.965 0 0 0 15 30c8.29 0 15-6.709 15-15 0-8.29-6.709-15-15-15z"/></g></g></svg>