<svg xmlns="http://www.w3.org/2000/svg" width="19" height="20" viewBox="0 0 19 20"><g><g><path fill="#ad9ee9" d="M7.272 15.455c.545 0 .91-.364.91-.91V9.091c0-.546-.365-.909-.91-.909s-.909.363-.909.909v5.454c0 .546.364.91.909.91zm3.637 0c.546 0 .91-.364.91-.91V9.091c0-.546-.364-.909-.91-.909-.545 0-.909.363-.909.909v5.454c0 .546.364.91.909.91zM6.363 3.636v-.908c0-.546.364-.91.909-.91h3.637c.546 0 .91.364.91.91v.908zM3.637 5.454h10.908v11.819c0 .546-.362.908-.908.908H4.545c-.545 0-.908-.362-.908-.908zm10 14.546c1.545 0 2.726-1.182 2.726-2.727V5.454h.91c.545 0 .909-.364.909-.908 0-.546-.364-.91-.909-.91h-3.636v-.908C13.637 1.182 12.455 0 10.91 0H7.272C5.727 0 4.545 1.182 4.545 2.728v.908H.91c-.545 0-.91.364-.91.91 0 .544.365.908.91.908h.908v11.819C1.818 18.818 3 20 4.545 20z"/></g></g></svg>