<svg xmlns="http://www.w3.org/2000/svg" width="24" height="6" viewBox="0 0 24 6"><g><g><path fill="#927ee1" d="M24 1.31v2.617c0 .364-.127.673-.382.928a1.263 1.263 0 0 1-.927.382h-2.618c-.364 0-.673-.127-.928-.382a1.263 1.263 0 0 1-.382-.928V1.31c0-.363.127-.673.382-.927C19.4.127 19.71 0 20.073 0h2.618c.363 0 .673.127.927.382.255.254.382.564.382.927zm-9.382 0v2.617c0 .364-.127.673-.382.928a1.263 1.263 0 0 1-.927.382H10.69c-.364 0-.673-.127-.928-.382a1.263 1.263 0 0 1-.382-.928V1.31c0-.363.128-.673.382-.927.255-.255.564-.382.928-.382h2.618c.364 0 .673.127.927.382.255.254.382.564.382.927zm-9.382 0v2.617c0 .364-.127.673-.382.928a1.263 1.263 0 0 1-.927.382H1.309c-.363 0-.673-.127-.927-.382A1.263 1.263 0 0 1 0 3.927V1.31C0 .946.127.636.382.382.636.127.946 0 1.309 0h2.618c.364 0 .673.127.928.382.255.254.382.564.382.927z"/></g></g></svg>