<svg xmlns="http://www.w3.org/2000/svg" width="19" height="21" viewBox="0 0 19 21"><g><g><path fill="#927ee1" d="M7.272 15.983c.545 0 .91-.364.91-.91V9.62c0-.546-.365-.909-.91-.909s-.909.363-.909.909v5.454c0 .546.364.91.909.91zm3.637 0c.546 0 .91-.364.91-.91V9.62c0-.546-.364-.909-.91-.909-.545 0-.909.363-.909.909v5.454c0 .546.364.91.909.91zM6.363 4.163v-.908c0-.545.364-.91.909-.91h3.637c.546 0 .91.365.91.91v.909zM3.637 5.983h10.908v11.819c0 .546-.362.908-.908.908H4.545c-.545 0-.908-.362-.908-.908zm10 14.546c1.545 0 2.726-1.182 2.726-2.727V5.982h.91c.545 0 .909-.364.909-.908 0-.546-.364-.91-.909-.91h-3.636v-.909c0-1.545-1.182-2.727-2.728-2.727H7.272c-1.545 0-2.727 1.182-2.727 2.727v.909H.91c-.545 0-.91.364-.91.91 0 .544.365.908.91.908h.908v11.819c0 1.545 1.182 2.727 2.727 2.727z"/></g></g></svg>