<svg xmlns="http://www.w3.org/2000/svg" width="18.077" height="23.5" viewBox="0 0 18.077 23.5">
    <g transform="translate(0 0)" opacity="0.75">
        <path d="M182.577,18.6c.809.967.665,2.465.5,4.2-.02.2-.04.417-.06.63a5.176,5.176,0,0,1,1.682-.064c-.03-2.664-.556-4.44-1.6-5.427a3.782,3.782,0,0,0-2.793-.947l.015.6A3.3,3.3,0,0,1,182.577,18.6Z" transform="translate(-174.991 -16.982)" fill="#604fa4"/>
        <path d="M163.2,126.066a4.361,4.361,0,0,1,1.334-.764c.025-.263.045-.521.069-.774a2.034,2.034,0,0,0-1.91-.471,1.934,1.934,0,0,0-1.2.714A5.963,5.963,0,0,1,163.2,126.066Z" transform="translate(-157.101 -118.738)" fill="#604fa4"/>
        <path d="M281.215,115.525a5.779,5.779,0,0,1,1.771-1.334,3.311,3.311,0,0,0-3.586-1.151c.045.5.074,1.027.074,1.592A4.445,4.445,0,0,1,281.215,115.525Z" transform="translate(-269.248 -108.183)" fill="#604fa4"/>
        <path d="M89.372,145.752a2.809,2.809,0,0,0-2.258-1.918,3.687,3.687,0,0,0-3.266,1.442,5.531,5.531,0,0,1,.686.927.294.294,0,1,1-.509.294,4.69,4.69,0,0,0-.764-.991s0,0-.01,0l-.029-.029a4.113,4.113,0,0,0-5.338-.147,5.384,5.384,0,0,0-1.645,2.923.292.292,0,1,1-.568-.137v0a6.346,6.346,0,0,1,1.44-2.849A5.023,5.023,0,0,0,75.37,144s-.01,0-.02,0a2.748,2.748,0,0,0-1.5-.167,2.8,2.8,0,0,0-2.258,1.918c-.421,1.388.122,2.741.7,4.174a10.014,10.014,0,0,1,.95,3.688,12.242,12.242,0,0,0,.744,4.649,2.6,2.6,0,0,0,2.375,1.878c.088,0,.46-.167,1.068-.883a10.938,10.938,0,0,1-.686-1.378.294.294,0,1,1,.539-.235v0a10.278,10.278,0,0,0,.749,1.461c0,.01.015.02.02.029.754,1.2,1.606,1.864,2.434,1.864,1.019,0,1.851-.951,2.375-1.751a13.8,13.8,0,0,0,1.709-4.345.295.295,0,1,1,.578.118.018.018,0,0,1,0,.015,14.892,14.892,0,0,1-1.626,4.277c.5.564.911.824,1.092.824a2.56,2.56,0,0,0,2.414-1.878,12.353,12.353,0,0,0,.705-4.654,10.014,10.014,0,0,1,.95-3.688c.578-1.417,1.117-2.771.7-4.159ZM73.794,150a.3.3,0,0,1-.382-.162c-.093-.235-.206-.52-.3-.8-.078-.221-.147-.427-.2-.618-.073-.25-.132-.51-.181-.765a5.294,5.294,0,0,1-.073-.677.292.292,0,1,1,.583-.025,4.853,4.853,0,0,0,.064.6,6.945,6.945,0,0,0,.167.7c.054.181.113.373.191.584.1.28.206.554.3.785A.291.291,0,0,1,73.794,150Zm.735,2.06a.293.293,0,0,1-.362-.2c-.059-.191-.122-.392-.2-.608a.295.295,0,1,1,.548-.216s0,.01,0,.015c.083.231.152.437.211.638A.3.3,0,0,1,74.528,152.064Z" transform="translate(-71.445 -137.494)" fill="#604fa4"/>
    </g>
</svg>
