<svg xmlns="http://www.w3.org/2000/svg" width="16.1" height="16.1" viewBox="0 0 16.1 16.1">
    <g opacity="0.25">
        <g transform="translate(0.99 9.194)">
            <g transform="translate(0 1.174)">
                <path d="M35.355,331.484l-.02-.041a3.905,3.905,0,0,1-1.091.162h-.023a3.86,3.86,0,0,1-1.836-.461,3,3,0,0,0,3,2.689H35.4a3.059,3.059,0,0,0,.838-.121A13.785,13.785,0,0,0,35.355,331.484Z" transform="translate(-32.385 -331.144)" fill="#604fa4"/>
                <path d="M376.291,338.737h-.021a3.656,3.656,0,0,1-1.177-.195c-.037.1-.074.2-.107.3a15.285,15.285,0,0,0-.435,1.509,2.442,2.442,0,0,0,.915.177h.015a2.429,2.429,0,0,0,1.711-.71,2.367,2.367,0,0,0,.692-1.453A3.646,3.646,0,0,1,376.291,338.737Z" transform="translate(-363.761 -338.136)" fill="#604fa4"/>
            </g>
            <path d="M159.7,295.236a3.522,3.522,0,0,1-.65-.564q-.154.015-.309.016h-.02a3.271,3.271,0,0,1-1.573-.4l-.574,1.923L155.5,294.2a3.533,3.533,0,0,1-.385-.117,3.273,3.273,0,0,1-1.131.246,3.733,3.733,0,0,1-.984.846,11.887,11.887,0,0,1,1.369,5.394.409.409,0,0,0,.408.42H156.1l-.01-2.071a.475.475,0,1,1,.95-.009l.01,2.08h1.278a.409.409,0,0,0,.406-.425,13.921,13.921,0,0,1,.814-4.911Q159.627,295.435,159.7,295.236Z" transform="translate(-149.201 -294.08)" fill="#604fa4"/>
        </g>
        <path d="M14.639,10.142a2.628,2.628,0,0,1-2.272-1.284,2.321,2.321,0,0,1-.716.117h-.014a2.274,2.274,0,0,1-1.49-.545,2.569,2.569,0,0,1-2.133-.167A2.3,2.3,0,0,1,6.8,8.616a2.38,2.38,0,0,1-.369-.027A2.844,2.844,0,0,1,3.966,10H3.948A2.758,2.758,0,0,1,1.131,7.334,2.685,2.685,0,0,1,2.91,4.82,1.983,1.983,0,0,1,3.5,3.013a2.173,2.173,0,0,1,1.5-.6,2.272,2.272,0,0,1,.379.03A3.2,3.2,0,0,1,6.352.876,3.489,3.489,0,0,1,8.66,0h.021a3.512,3.512,0,0,1,2.193.761A3.246,3.246,0,0,1,11.906,2.2a3.175,3.175,0,0,1,.577-.056H12.5a2.967,2.967,0,0,1,3.031,2.87,2.745,2.745,0,0,1-.017.328,2.608,2.608,0,0,1,1.067.692,2.392,2.392,0,0,1-.111,3.384,2.64,2.64,0,0,1-1.818.725h-.016Z" transform="translate(-1.131 0)" fill="#604fa4"/>
    </g>
</svg>
