<svg xmlns="http://www.w3.org/2000/svg" width="22.69" height="28.236" viewBox="0 0 22.69 28.236">
    <g transform="translate(0 0)">
        <path d="M62.979,139.921a4.873,4.873,0,0,1-1.567.363A4.521,4.521,0,0,1,62.2,141.5a5.116,5.116,0,0,1,.324,3.023.327.327,0,0,1-.384.278.283.283,0,0,1-.146-.085c-.113-.109-.232-.26-.367-.417a3.409,3.409,0,0,0-.816-.81c-.092-.048-.227-.091-.378-.151a4.778,4.778,0,0,1-2.523-1.789c-.016.042-.032.079-.049.121a3.12,3.12,0,0,1-1.983,2.092,5.5,5.5,0,0,1-.794.073,4.113,4.113,0,0,0-1.118.133.3.3,0,0,1-.454-.054.379.379,0,0,1-.07-.266,4.793,4.793,0,0,1,.843-2.255,1.963,1.963,0,0,0,.459-1.372,3.855,3.855,0,0,1-2.82-.224,11.345,11.345,0,1,0,11.053.121Zm-13.6,6.457a11.588,11.588,0,0,0-.027,6.856.372.372,0,0,1-.2.46.315.315,0,0,1-.411-.224,12.388,12.388,0,0,1,.027-7.333.32.32,0,0,1,.416-.224A.382.382,0,0,1,49.376,146.378Zm1.945,11.142a.3.3,0,0,1-.459-.03,12.3,12.3,0,0,1-1.134-1.687.389.389,0,0,1,.1-.5.3.3,0,0,1,.448.109l.005.006A11.292,11.292,0,0,0,51.343,157,.4.4,0,0,1,51.321,157.52Z" transform="translate(-46 -133.038)" fill="#604fa4"/>
        <path d="M141.949,23.292a3.738,3.738,0,0,0,2.851.138.335.335,0,0,1,.414.188,2.068,2.068,0,0,1-.458,2.162,3.985,3.985,0,0,0-.651,1.246c.243-.033.546-.044.9-.061a5.621,5.621,0,0,0,.689-.05,2.376,2.376,0,0,0,1.566-1.544c.176-.37.325-.684.656-.695h.011a.328.328,0,0,1,.276.149,4.231,4.231,0,0,0,2.487,1.732,3.983,3.983,0,0,1,.452.16,3.19,3.19,0,0,1,.915.75,3.523,3.523,0,0,0-.358-1.66,3.623,3.623,0,0,0-1.4-1.495.333.333,0,0,1-.121-.452.323.323,0,0,1,.331-.16,4.509,4.509,0,0,0,3.971-1.329,4.67,4.67,0,0,1-2-.1,7.875,7.875,0,0,1-1.2-.491,4.062,4.062,0,0,0-2.708-.579l.237.954a.332.332,0,1,1-.645.16l-1.208-4.853a.357.357,0,0,0-.436-.259.363.363,0,0,0-.265.43l.949,4.081a.33.33,0,0,1-.248.4.312.312,0,0,1-.187-.011,4.241,4.241,0,0,0-3.463.182,4.278,4.278,0,0,1-1.621.419,2.4,2.4,0,0,1-.684-.132A4.373,4.373,0,0,0,141.949,23.292Z" transform="translate(-136.017 -17.191)" fill="#604fa4"/>
    </g>
</svg>
