<svg xmlns="http://www.w3.org/2000/svg" width="17.969" height="19.466" viewBox="0 0 17.969 19.466">
    <g transform="translate(0)" opacity="0.5">
        <path d="M50.122,7.266a3.336,3.336,0,0,1-2.783-3.309c-.1-.95-.137-2.169-.191-3.246A.765.765,0,0,0,46.463,0a.648.648,0,0,0-.691.616c-.029.491-.053,1.019-.088,1.367-.1,1.042-.156,2.093-.336,3.123a2.305,2.305,0,0,1-1.932,1.977,8.459,8.459,0,0,0-4.269,2.3,5.443,5.443,0,0,0,1.921,9.01c.357.145.461-.012.248-.334-2.106-3.178-1.581-7.437,1.159-9.35.316-.221.511-.225.406-.057-.072.115-.131.209-.195.3a8.435,8.435,0,0,0-1.579,5.312,1.614,1.614,0,0,0,.027.2,9.063,9.063,0,0,0,.318,1.57,4.9,4.9,0,0,0,.675,1.344,5.083,5.083,0,0,0,1.017,1.058c.322.248,2.494,1.563,2.82.8.109-.252.474-2.282.525-2.722a36.84,36.84,0,0,0,.217-3.745,5.545,5.545,0,0,0-.051-.683c-.008-.082-.023-.172.066-.149a.214.214,0,0,1,.088.149,16.25,16.25,0,0,1,.5,3.182c.025.456.029.915.047,1.371.025.591.059,1.183.092,1.774.01.17.018.34.029.51.016.28.324.465.677.358a5.605,5.605,0,0,0,3.628-6.63c-.045-.241-.1-.483-.146-.724l-.062-.3c-.035-.168.1-.037.267.309a6.81,6.81,0,0,1,.057,5.894c-.152.354.01.559.365.411a5.421,5.421,0,0,0,2.76-7.062A6.847,6.847,0,0,0,50.122,7.266Z" transform="translate(-37.499 0.001)" fill="#604fa4"/>
    </g>
</svg>
