<svg xmlns="http://www.w3.org/2000/svg" width="20.64" height="21.056" viewBox="0 0 20.64 21.056">
    <g transform="matrix(0.951, 0.309, -0.309, 0.951, 342.52, 9.709)" opacity="0.35">
        <g transform="translate(-323.798 95)">
            <path d="M13.139,1.136a2.575,2.575,0,0,1,1.2.3,4.292,4.292,0,0,0-1.094,2.78.606.606,0,0,0,.641.621,1.007,1.007,0,0,0,.213-.026,2.941,2.941,0,0,0,.093.338h0l0,.006a3.322,3.322,0,0,0,.221.49,33.676,33.676,0,0,0,5.613,8.241,9.479,9.479,0,0,0,1.4,1.4l0,0h0c1.878,1.509,4.084,2.033,5.557,1.143,1.96-1.184,2.6-4.695.545-7.5a10.275,10.275,0,0,0-3.439-2.7h0l-.011,0a6.755,6.755,0,0,0-.946-.4,5.578,5.578,0,0,1-2.626-2.3h0a3.413,3.413,0,0,0-.452-.84c-.022-.03-.047-.056-.07-.085a.882.882,0,0,0,.164-.348.686.686,0,0,0-.433-.8,8.734,8.734,0,0,0-3.59-.685q-.342,0-.69.018a.671.671,0,0,0-.071.01A3.377,3.377,0,0,0,13.139,0C12.4-.042,12.4,1.094,13.139,1.136Zm7.325,4.547.016.022-.031.01C20.455,5.7,20.46,5.694,20.465,5.683Zm.561.3C23.8,7.4,27.047,8.462,27.56,11.919c.08.537-.753.768-.833.227-.476-3.2-3.582-4.124-6.138-5.424C20.094,6.469,20.531,5.734,21.026,5.986ZM16.432,1.2a8.968,8.968,0,0,1,1.933.242,7.426,7.426,0,0,1,1.186.4.266.266,0,0,1,.185.321.435.435,0,0,1-.04.106.478.478,0,0,1-.41.267.452.452,0,0,1-.18-.039,5.656,5.656,0,0,0-.751-.26L17.7,2.053l.467.57a1.423,1.423,0,0,1,.091.115.293.293,0,0,1,.037.323.479.479,0,0,1-.408.227.391.391,0,0,1-.332-.179,2.52,2.52,0,0,0-1.53-.877l-.124-.03-.086.092a1.936,1.936,0,0,0-.1,2.426.366.366,0,0,1-.006.382.478.478,0,0,1-.385.223.311.311,0,0,1-.285-.19,3.327,3.327,0,0,1-.17-.537c-.037-.142-.072-.273-.1-.36l-.127-.347L14.4,4.17a.753.753,0,0,1-.363.218.585.585,0,0,1-.149.022c-.145,0-.2-.059-.209-.211a3.9,3.9,0,0,1,.995-2.488c.012.014.026.025.038.039a.557.557,0,0,0,.179.144.58.58,0,0,0,.771-.5.564.564,0,0,0-.009-.195c.162-.006.323-.012.483-.012C16.236,1.191,16.333,1.195,16.432,1.2Zm2.082,6.2-.007-.011.016,0Z" transform="translate(-12.584 0)" fill="#604fa4"/>
        </g>
    </g>
</svg>
