<svg xmlns="http://www.w3.org/2000/svg" width="30" height="24.37" viewBox="0 0 30 24.37">
    <path d="M30,2.887a12.463,12.463,0,0,1-3.075,3.178q.018.352.018.8a17.679,17.679,0,0,1-2.918,9.678A18.7,18.7,0,0,1,20.5,20.548a15.706,15.706,0,0,1-4.915,2.784A17.952,17.952,0,0,1,9.435,24.37,17.131,17.131,0,0,1,0,21.6a13.308,13.308,0,0,0,1.468.085,12.067,12.067,0,0,0,7.645-2.637,5.972,5.972,0,0,1-3.574-1.228,6.049,6.049,0,0,1-2.172-3.046,6.152,6.152,0,0,0,2.779-.1,6,6,0,0,1-3.533-2.121,5.955,5.955,0,0,1-1.4-3.912V8.567A6.074,6.074,0,0,0,4,9.337,6.114,6.114,0,0,1,2,7.144a6.006,6.006,0,0,1-.739-2.927,6.047,6.047,0,0,1,.832-3.092A17.524,17.524,0,0,0,7.7,5.667a17.1,17.1,0,0,0,7.072,1.889,6.018,6.018,0,0,1-.162-1.4,5.929,5.929,0,0,1,1.8-4.351,6.157,6.157,0,0,1,8.844.137A12.258,12.258,0,0,0,29.168.447a5.95,5.95,0,0,1-2.7,3.406A12.3,12.3,0,0,0,30,2.887Z"/>
</svg>
