<svg xmlns="http://www.w3.org/2000/svg" width="30" height="18.75" viewBox="0 0 30 18.75">
    <path d="M22.618,9.462a46.716,46.716,0,0,1,4.643,4.087Q30,16.229,30,16.875a2.007,2.007,0,0,1-.454,1.333,1.748,1.748,0,0,1-1.421.542H25.019a2.145,2.145,0,0,1-1.582-.733q-1.758-1.875-3.6-3.6a24.344,24.344,0,0,0-2.959-2.461v5.859a.951.951,0,0,1-.937.938h-3.75a3.745,3.745,0,0,1-1.948-1.025A21.61,21.61,0,0,1,7.5,15,47.362,47.362,0,0,1,2.7,7.91Q0,3.252,0,1.875A1.925,1.925,0,0,1,.454.425,2.025,2.025,0,0,1,1.875,0H4.981a1.435,1.435,0,0,1,.864.352,2.383,2.383,0,0,1,.688.82q.058.147.586,1.245t.674,1.392l.615,1.231L9.126,6.4l.659,1.1.762,1.142.7.85V.938a.9.9,0,0,1,.278-.659A.9.9,0,0,1,12.188,0h3.75A.9.9,0,0,1,16.6.278a.9.9,0,0,1,.278.659v6.68A29.145,29.145,0,0,0,23.438.732,1.942,1.942,0,0,1,24.126.22,2.054,2.054,0,0,1,25.019,0h3.106a1.886,1.886,0,0,1,1.45.469A2.036,2.036,0,0,1,30,1.876q0,1.289-2.388,3.589A33.734,33.734,0,0,1,22.618,9.462Z"/>
</svg>
