<svg xmlns="http://www.w3.org/2000/svg" width="34" height="34" viewBox="0 0 34 34"><g><g><g><path fill="#cdecf7" d="M0 17C0 7.611 7.611 0 17 0s17 7.611 17 17-7.611 17-17 17S0 26.389 0 17z"/></g><g><g><path fill="#0890c2" d="M6.772 15.851zm1.245.992c.78.407 1.683.64 2.48.64a.328.328 0 0 0 0-.656c-.685 0-1.498-.212-2.176-.565-.536-.28-.935-.618-1.104-.93a6.036 6.036 0 0 1 1.625-1.15c.672.63 2.454.92 4.135.92 1.68 0 3.462-.291 4.134-.92 1.357.674 2.272 1.646 2.68 2.822 0 .065.02.129.057.182.123.415.184.846.183 1.279 0 2.338-1.445 3.664-2.955 4.587l-.008.005-.008.005c-.494.3-.994.56-1.453.796-.683.352-1.274.657-1.626.996-.566.545-.886 1.85-1.08 3.222-.278-1.335-.603-2.36-.894-2.747-.745-.99-1.78-1.589-2.781-2.167-1.699-.982-3.303-1.91-3.303-4.697-.009-.94.29-1.858.85-2.614.262.36.688.702 1.244.992zm3.269-3.964c.16.42.611.94 1.589.94 1.006 0 1.449-.52 1.598-.943 1.491.187 2.218.572 2.26.736a.037.037 0 0 1-.003.012l-.008.015-.001.005c-.05.083-.273.283-.946.475-.743.211-1.737.328-2.798.328-1.062 0-2.056-.117-2.799-.328-.664-.19-.89-.387-.944-.47 0-.004-.002-.007-.003-.01l-.01-.019v-.006c.023-.123.581-.524 2.065-.735zm-.434-5.71h.8l1.028 5.411a.329.329 0 0 0 .394.315.328.328 0 0 0 .265-.29l.427-1.606v-.001l.524-1.974.464.342-.865 3.119a.328.328 0 0 0-.01.066c-.002.025-.051.611-1.004.611-.892 0-.997-.565-1.005-.625a.343.343 0 0 0-.004-.026zm1.451-2.945l.814 6.661-.053.199-.817-4.303a.328.328 0 0 0-.322-.267h-.375l-.39-1.84zm1.955 1.34v2.624a.328.328 0 0 0-.478.202l-.21.79-.442-3.617zm6.429 12.9a5.203 5.203 0 0 0-.133-1.18h.001c.379.767 1.824 1.568 2.802 1.989.839.361 1.671.61 2.344.7.166.023.333.035.5.036.18.004.359-.02.531-.07.327.38.592.806.788 1.266-.221.15-.6.256-1.039.286-.608.041-1.27-.063-1.77-.278a.328.328 0 1 0-.26.602 4.547 4.547 0 0 0 2.075.33c.306-.02.794-.089 1.196-.298.152.695.079 1.42-.208 2.07-.865 2.011-2.268 2.168-3.891 2.35-.935.104-1.9.212-2.78.707-.34.191-.844.773-1.366 1.488.293-1.178.333-1.97.132-2.44-.158-.371-.504-.788-.905-1.27-.36-.42-.698-.859-1.012-1.314 1.53-.995 2.995-2.468 2.995-4.973zm2.222-1.27c.01.372.215.86.93 1.169.216.098.45.15.687.154.289.004.57-.097.79-.284.869.528 1.214.92 1.265 1.066-.232.14-1.382.053-2.965-.629-1.577-.68-2.43-1.45-2.493-1.718.155-.063.723-.068 1.786.242zm.67-.127a.225.225 0 0 0 .014-.063l.336-2.52.323-.073-.368 2.543a.328.328 0 0 0 .59.24l2.415-3.305.233.1.001.001.254.11-2.399 3.53a.23.23 0 0 0-.01.017l-.003.003v.001a.506.506 0 0 1-.168.146c-.18.097-.415.085-.699-.037-.604-.26-.542-.614-.52-.693zm1.093-6.145l.925.068-.117 1.996-.569.81a.323.323 0 0 0-.334-.13zm2.64.598l.637.627-.808 1.136-.233-.1a.328.328 0 0 0-.395.108l-1.79 2.45.097-.675zM8.897 23.73c.987.57 1.92 1.11 2.584 1.993.326.433.852 2.374 1.17 4.872.018.166.159.292.327.293h.008c.11-.002.3-.055.328-.374.005-.05.01-.123.017-.215.259-3.48.743-4.624 1.104-4.972.283-.273.834-.557 1.472-.886.38-.196.798-.411 1.224-.66.33.484.687.948 1.068 1.391.367.443.685.825.806 1.107.294.688-.344 2.774-.751 3.957l-.056.164c-.1.302.077.421.158.459a.334.334 0 0 0 .424-.135c1.019-1.723 2.013-2.968 2.384-3.178.763-.43 1.622-.525 2.53-.627 1.675-.187 3.405-.38 4.422-2.742.661-1.535.332-3.229-.9-4.679.152-.485-.352-1.086-1.5-1.788l2.426-3.57a.328.328 0 0 0-.142-.486l-.244-.105.889-1.249a.328.328 0 0 0-.038-.424l-1.113-1.095a.328.328 0 0 0-.498.045l-.8 1.138.075-1.258a.328.328 0 0 0-.304-.346l-1.588-.117a.328.328 0 0 0-.352.316l-.113 3.255-.353.08a.328.328 0 0 0-.253.277l-.315 2.364c-1.38-.393-2.206-.363-2.457.092-.062.004-.12.008-.18.014a4.988 4.988 0 0 0-.62-1.139c-.565-.78-1.355-1.424-2.349-1.915-.031-.858-1.709-1.214-2.748-1.352l.807-2.911a.328.328 0 0 0-.122-.352l-.417-.307a.329.329 0 0 0 .007-.063V5.235a.328.328 0 0 0-.329-.328h-1.538l-.145-1.183a.328.328 0 0 0-.446-.266l-1.795.707a.328.328 0 0 0-.201.374l.418 1.975h-.424a.328.328 0 0 0-.322.389l1.013 5.334c-.633.093-1.187.231-1.617.405-.627.253-.95.57-.964.945-.994.49-1.784 1.134-2.35 1.915a4.95 4.95 0 0 0-.949 2.963c0 3.166 1.846 4.233 3.632 5.265z"/></g></g></g></g></svg>