<svg xmlns="http://www.w3.org/2000/svg" width="34" height="34" viewBox="0 0 34 34"><g><g><g><path fill="#e2f1c3" d="M0 17C0 7.611 7.611 0 17 0s17 7.611 17 17-7.611 17-17 17S0 26.389 0 17z"/></g><g><g><path fill="#719921" d="M6.091 21.212c.467-2.585 2.72-4.186 4.54-4.186a.273.273 0 0 0 0-.545 4.2 4.2 0 0 0-1.247.198l.055-.461 1.158-.475 1.036 1.314-.512 1.557-.946.535-.487-.424c.267-.07.542-.106.818-.107a.273.273 0 1 0 0-.546 4.08 4.08 0 0 0-1.472.29 4.87 4.87 0 0 0-.968.51c-.669.453-1.157 1.027-1.275 1.498-.086.342.026.637.3.79.04.05.082.251.01.415-.056.126-.16.182-.326.18a.857.857 0 0 1-.599-.283.316.316 0 0 1-.085-.26zm.485-4.513a1.436 1.436 0 0 1 1.153-1.404c.279.51.845.793 1.161.917l-.082.687a5.568 5.568 0 0 0-1.526 1.034 1.434 1.434 0 0 1-.706-1.234zm2.711-4.337c.582-.452 1.326-.58 2.152-.369l.292.076c-.82.493-1.155 1.249-1.286 1.857-.09.432-.11.876-.062 1.315l-1.207.495c-.222-.078-.827-.33-1.01-.792l-.002-.078c0-.99.441-1.974 1.123-2.504zm5.487.725c-.613.433-.962 1.09-1.057 1.989a5.52 5.52 0 0 0-.027.649c-.28-.022-.625.054-.97.22a2.458 2.458 0 0 0-.797.6l-.982-1.248c-.062-.383-.285-2.378 1.612-3.006.78.221 1.561.478 2.221.796zm.664.245a3.162 3.162 0 0 1 .553-.189c.369-.09 1.146.104 1.68.596-.788.737-1.053 2.189-1.14 2.928-.101.876-.098 1.622-.094 2.565l.001.577c0 1.61.298 3.168.839 4.39.124.284.27.558.438.818-.577-.211-1.059-.798-1.391-1.321-.63-.99-1.155-2.43-1.48-4.055l-.106-.523c-.304-1.502-.592-2.921-.479-3.985.096-.9.466-1.474 1.18-1.8zm3.68-1.853c.055.125.103.252.143.382.179.584.19 1.238-.169 1.44a2.79 2.79 0 0 0-.292-.016 1.592 1.592 0 0 0-.667.141 2.98 2.98 0 0 0-1.476-.8c.387-.553 1.27-.872 2.46-1.147zm-1.216-1.59a.26.26 0 0 0-.126.065c-.032.029-.098.065-.13.055-.036-.01-.125-.102-.2-.37-.093-.337-.081-.543-.056-.656a.09.09 0 0 1 .087-.07c1.147.005 2.036.955 2.58 1.75a8.87 8.87 0 0 1 .959 1.871c.098.258.177.523.236.793a.273.273 0 0 0 .534-.109l-.03-.137a2.28 2.28 0 0 0 .755.027c.138-.015.276-.037.412-.067a1.422 1.422 0 0 0-.051.594v.005a2.799 2.799 0 0 0-.322-.019c-.367 0-.71.138-1.012.259-.257.103-.5.2-.686.183-.19-.017-.344-.125-.54-.26a3.063 3.063 0 0 0-.602-.35c.265-.397.298-1.017.072-1.753-.062-.2-.14-.396-.233-.584l-.002-.012a.271.271 0 0 0-.075-.136c-.384-.696-.966-1.216-1.57-1.08zm4.65 2.168a1.667 1.667 0 0 0-.305.522c-.322.01-.617-.053-.737-.277a9.774 9.774 0 0 0-.507-1.122c.505.025 1.183.198 1.55.876zm.878-.034a2.245 2.245 0 0 1 1.446-.307c.746.106 1.37.478 1.604.924-.792.03-2.289.364-3.07.9-.019-.192.025-.462.27-.775a.273.273 0 0 0-.33-.415 3.41 3.41 0 0 1-.441.133c.142-.186.319-.342.52-.46zm3.32 1.17c1.677.4 1.032 3.624.408 6.744-.544 2.723-1.194 4.665-2.597 5.29a2.596 2.596 0 0 1-1.163.205c.142-.32.267-.696.406-1.115.115-.346.245-.739.405-1.164.071-.189.195-.476.338-.808.297-.691.667-1.552.788-2.058.361-1.51.437-2.723.23-3.71-.168-.801-.508-1.45-1.105-2.105a2.665 2.665 0 0 0-.665-.536c.806-.5 2.585-.832 2.955-.743zm-3.414-.836zm-1.608 13.718c-.204 0-.369-.092-.577-.207-.219-.122-.467-.26-.804-.306a2.704 2.704 0 0 0-.376-.028 2.968 2.968 0 0 0-.345.023 3.062 3.062 0 0 1-.367.024h-.002c-.476 0-1.043-.615-1.481-1.604-.51-1.152-.792-2.633-.792-4.168l-.001-.579c-.004-.925-.007-1.656.09-2.5.314-2.69 1.401-2.9 1.727-2.9.6 0 .905.214 1.201.42.23.16.469.326.803.357.315.028.632-.098.938-.22.269-.109.547-.22.809-.22.593 0 1.1.226 1.506.672.831.913 1.497 2.189.748 5.32-.11.462-.47 1.298-.76 1.97-.145.339-.271.631-.346.832-.164.435-.296.833-.413 1.184-.475 1.434-.684 1.93-1.558 1.93zm-8.333-3.484c-1.702.084-2.672-.268-3.38-.524a5.231 5.231 0 0 0-.716-.224c-.077-.434-.163-1.589.959-2.114l.012-.007.006-.003.702-.397c-.07 1.092.572 1.982 1.365 2.279a.273.273 0 1 0 .19-.511c-.877-.329-1.163-1.403-.925-2.211l.581-1.766c.323-.6 1.196-.918 1.528-.834.072.897.275 1.902.487 2.948l.105.521c.17.872.415 1.729.73 2.56-.417.158-.948.25-1.644.283zm-4.658-1.559a3.16 3.16 0 0 0 .01.796l-.043.008c-.47.1-.807-.167-1.019-.44.007-.29-.095-.588-.324-.71-.032-.018-.077-.042-.041-.184.11-.441.829-1.161 1.773-1.572l.581.506c-.532.365-.855.91-.937 1.596zm-1.971 1.269h.019c.298 0 .542-.114.702-.316.381.352.841.488 1.33.384.272-.058.583.054 1.013.21.638.232 1.571.57 3.074.57.165 0 .338-.005.517-.013.773-.038 1.35-.14 1.825-.323.176.407.382.8.617 1.176.693 1.088 1.482 1.656 2.294 1.656l.068-.002c.33.315.682.483 1.031.483.144-.001.287-.01.43-.027.194-.028.392-.027.586.003.236.032.42.134.614.242.233.13.497.276.842.276.673 0 1.08-.241 1.38-.663.14.014.277.02.41.021.435.006.866-.08 1.265-.254 1.797-.8 2.445-3.352 2.91-5.68.652-3.258 1.324-6.621-.602-7.318-.18-.757-1.045-1.396-2.138-1.55a2.753 2.753 0 0 0-1.99.501c-.45-.716-1.27-1.095-2.273-1.042a8.04 8.04 0 0 0-.183-.28c-.885-1.295-1.932-1.983-3.027-1.989h-.003a.64.64 0 0 0-.618.495c-.058.255-.037.565.062.923.118.424.313.677.58.751.25.069.464-.044.573-.122.234-.014.521.212.768.57-1.179.279-2.364.685-2.787 1.6a1.29 1.29 0 0 0-.194.03c-.171.043-.34.097-.503.162-1.074-.59-2.512-.986-3.784-1.31-.995-.254-1.902-.093-2.621.466-.798.62-1.303 1.696-1.333 2.829a1.978 1.978 0 0 0-.724 3.575 5.813 5.813 0 0 0-1.342 2.78.859.859 0 0 0 .2.703c.255.296.622.47 1.012.483z"/></g><g><path fill="#719921" d="M18.364 20.967a10.52 10.52 0 0 1-.025-.266.236.236 0 0 0-.471.038c.008.097.017.191.026.279.015.133.03.253.048.357a.236.236 0 1 0 .466-.078 5.896 5.896 0 0 1-.044-.33z"/></g><g><path fill="#719921" d="M18.453 15.59a.236.236 0 0 0-.313.115c-.293.636-.318 2.414-.318 2.944v.272c.003.192.007.381.014.563a.236.236 0 0 0 .235.228h.009a.236.236 0 0 0 .227-.244 22.168 22.168 0 0 1-.013-.818c.001-1.31.11-2.388.275-2.747a.236.236 0 0 0-.116-.314z"/></g></g></g></g></svg>