<svg xmlns="http://www.w3.org/2000/svg" width="30" height="30" viewBox="0 0 30 30"><g><g><g><path fill="#e2f1c3" d="M0 15C0 6.716 6.716 0 15 0c8.284 0 15 6.716 15 15 0 8.284-6.716 15-15 15-8.284 0-15-6.716-15-15z"/></g><g><g><path fill="#719921" d="M5.39 18.291c.413-2.288 2.407-3.704 4.017-3.704a.241.241 0 0 0 0-.483 3.716 3.716 0 0 0-1.103.176l.049-.409 1.025-.42.916 1.163-.453 1.378-.837.473-.43-.375c.236-.062.479-.094.723-.095a.241.241 0 1 0 0-.483 3.611 3.611 0 0 0-1.303.257 4.31 4.31 0 0 0-.856.45c-.592.402-1.024.91-1.129 1.327-.076.303.024.563.267.699.034.045.072.222.008.367-.05.111-.142.16-.289.16a.758.758 0 0 1-.53-.251.28.28 0 0 1-.075-.23zm.429-3.993a1.27 1.27 0 0 1 1.02-1.243c.247.452.748.702 1.028.811l-.072.609a4.926 4.926 0 0 0-1.351.914 1.27 1.27 0 0 1-.625-1.091zm2.4-3.839c.514-.4 1.172-.512 1.903-.326l.258.067c-.726.437-1.021 1.105-1.138 1.643-.079.383-.097.775-.054 1.164l-1.068.438c-.197-.07-.732-.292-.894-.701l-.002-.069c0-.876.39-1.746.994-2.216zm4.855.642c-.543.383-.852.965-.936 1.76-.02.19-.027.382-.024.574-.247-.019-.553.049-.857.195a2.175 2.175 0 0 0-.706.53l-.87-1.103c-.054-.34-.252-2.105 1.427-2.66.691.195 1.382.423 1.966.704zm.587.217a2.798 2.798 0 0 1 .49-.167c.326-.08 1.014.091 1.487.527-.698.652-.933 1.937-1.009 2.59-.09.776-.088 1.436-.084 2.27l.001.511c0 1.425.264 2.804.742 3.884.11.252.24.494.388.725-.51-.187-.937-.706-1.231-1.17-.557-.874-1.022-2.149-1.31-3.587-.03-.156-.062-.31-.093-.463-.27-1.33-.524-2.585-.424-3.527.085-.796.412-1.303 1.043-1.593zm3.256-1.64c.05.11.091.223.127.338.159.517.169 1.096-.149 1.274a2.47 2.47 0 0 0-.259-.014 1.409 1.409 0 0 0-.59.125 2.636 2.636 0 0 0-1.306-.708c.342-.49 1.123-.772 2.177-1.015zM15.841 8.27a.23.23 0 0 0-.11.059c-.029.025-.087.057-.115.049-.033-.01-.111-.09-.177-.329-.083-.297-.073-.48-.05-.58a.08.08 0 0 1 .076-.062c1.016.005 1.802.845 2.283 1.55a7.849 7.849 0 0 1 .849 1.655c.087.228.156.463.209.701a.241.241 0 0 0 .473-.096 3.88 3.88 0 0 0-.027-.121 2.018 2.018 0 0 0 .668.024c.122-.014.244-.034.365-.06-.052.17-.068.35-.045.526v.005a2.478 2.478 0 0 0-.285-.017c-.325 0-.628.121-.895.228-.228.092-.444.178-.608.163-.168-.015-.304-.11-.477-.231a2.712 2.712 0 0 0-.533-.31c.234-.35.263-.899.063-1.55a3.479 3.479 0 0 0-.206-.517l-.002-.01a.24.24 0 0 0-.066-.12c-.34-.617-.855-1.077-1.39-.957zm4.116 1.92c-.118.136-.21.292-.27.462-.285.008-.547-.048-.653-.246a8.65 8.65 0 0 0-.449-.993c.447.023 1.048.176 1.372.776zm.776-.03a1.987 1.987 0 0 1 1.28-.272c.66.093 1.212.423 1.42.817-.702.027-2.026.322-2.718.797-.016-.17.023-.41.24-.686a.241.241 0 0 0-.292-.367 3.016 3.016 0 0 1-.39.117c.125-.164.281-.302.46-.406zm2.938 1.035c1.485.353.914 3.207.362 5.967-.482 2.41-1.058 4.129-2.299 4.681a2.298 2.298 0 0 1-1.029.182c.126-.284.237-.616.36-.986.101-.307.216-.654.358-1.03.063-.168.172-.422.298-.716.264-.611.591-1.373.699-1.821.319-1.336.385-2.41.203-3.283-.149-.709-.45-1.283-.978-1.863a2.358 2.358 0 0 0-.589-.473c.714-.444 2.288-.737 2.615-.658zm-3.02-.74a.154.154 0 0 1 .01-.006l-.01.006zm-1.424 12.139c-.18 0-.326-.08-.51-.183-.194-.108-.414-.23-.712-.271a2.396 2.396 0 0 0-.332-.025c-.103.001-.205.008-.306.02-.108.014-.216.021-.324.022h-.003c-.42 0-.922-.544-1.31-1.42-.452-1.019-.7-2.329-.7-3.688l-.002-.512c-.003-.819-.006-1.466.08-2.212.278-2.381 1.24-2.566 1.528-2.566.53 0 .801.188 1.063.371.204.142.415.289.71.316.28.025.56-.087.83-.195.239-.096.485-.194.716-.194.526 0 .974.2 1.333.594.736.808 1.325 1.937.662 4.709-.097.408-.416 1.148-.672 1.743-.129.3-.24.558-.307.735-.145.386-.262.738-.365 1.049-.42 1.268-.605 1.707-1.379 1.707zm-7.374-3.083c-1.506.074-2.364-.237-2.99-.464a4.627 4.627 0 0 0-.634-.198c-.068-.384-.144-1.406.848-1.87l.01-.006.007-.003.62-.352c-.061.967.507 1.754 1.208 2.017a.241.241 0 1 0 .169-.452c-.777-.291-1.03-1.242-.82-1.957l.515-1.563c.286-.531 1.059-.812 1.352-.738.064.794.244 1.684.431 2.61l.093.46a14 14 0 0 0 .645 2.266c-.368.14-.837.22-1.454.25zm-4.122-1.38c-.027.235-.024.472.009.705l-.038.007c-.416.089-.714-.148-.901-.389.006-.256-.084-.52-.287-.63-.029-.015-.068-.036-.037-.161.099-.39.734-1.028 1.57-1.391l.514.447c-.472.323-.757.805-.83 1.413zm-1.744 1.123h.017c.263 0 .48-.1.621-.28.337.313.745.433 1.178.34.24-.05.515.049.895.187.565.205 1.39.504 2.72.504.147 0 .3-.004.459-.012.683-.033 1.194-.123 1.614-.286.156.36.338.708.547 1.04.612.964 1.31 1.467 2.03 1.467l.06-.002c.292.278.603.427.912.427.127 0 .254-.009.38-.024a1.78 1.78 0 0 1 .52.003c.208.029.37.119.542.214.206.115.44.244.745.244.595 0 .956-.213 1.221-.586.125.012.246.018.363.018a2.71 2.71 0 0 0 1.12-.224c1.59-.708 2.163-2.966 2.575-5.027.576-2.882 1.172-5.859-.533-6.475-.16-.67-.925-1.235-1.892-1.373a2.437 2.437 0 0 0-1.762.444c-.397-.633-1.122-.968-2.01-.922a7.111 7.111 0 0 0-.162-.247c-.783-1.147-1.71-1.755-2.678-1.76h-.003a.566.566 0 0 0-.547.438c-.052.225-.033.5.055.816.104.376.277.6.513.665.221.06.41-.04.507-.109.207-.011.461.188.68.505-1.044.247-2.092.606-2.467 1.415a1.14 1.14 0 0 0-.172.028c-.151.037-.3.085-.445.143-.95-.523-2.222-.872-3.348-1.16-.88-.224-1.683-.081-2.32.413-.705.549-1.152 1.501-1.179 2.503a1.75 1.75 0 0 0-.64 3.164 5.144 5.144 0 0 0-1.188 2.46.76.76 0 0 0 .177.622c.225.262.55.417.895.427z"/></g><g><path fill="#719921" d="M16.25 18.074a9.253 9.253 0 0 1-.022-.235.209.209 0 1 0-.416.033 5.719 5.719 0 0 0 .065.562.209.209 0 1 0 .412-.068 5.195 5.195 0 0 1-.039-.292z"/></g><g><path fill="#719921" d="M16.33 13.315a.209.209 0 0 0-.278.103c-.259.562-.28 2.136-.281 2.605a27.548 27.548 0 0 0 .012.74.209.209 0 0 0 .209.2h.007a.209.209 0 0 0 .201-.215 19.7 19.7 0 0 1-.012-.724c.002-1.16.097-2.113.244-2.431a.209.209 0 0 0-.103-.278z"/></g></g></g></g></svg>