<svg xmlns="http://www.w3.org/2000/svg" width="30" height="30" viewBox="0 0 30 30">
    <circle cx="15" cy="15" r="15" fill="#f7cde2"/>
    <g transform="translate(4.65 2.878)">
        <path d="M44.889,22.921a7.118,7.118,0,0,1,2.282,1.76,13.808,13.808,0,0,1,1.032,4.3.293.293,0,0,0,.289.26H48.5c.1,0,.265-.049.29-.331,0-.044.009-.108.014-.19.229-3.072.657-4.083.975-4.39a6.328,6.328,0,0,1,1.3-.782c.335-.173.7-.364,1.081-.582a14.066,14.066,0,0,0,.943,1.228,5.136,5.136,0,0,1,.712.978c.26.607-.3,2.449-.663,3.493-.021.062-.038.111-.049.145a.3.3,0,0,0,.139.405.287.287,0,0,0,.121.027.3.3,0,0,0,.253-.146,10.9,10.9,0,0,1,2.106-2.806,5.718,5.718,0,0,1,2.235-.554c1.478-.165,3.006-.336,3.9-2.421a3.869,3.869,0,0,0-.794-4.132c.134-.429-.312-.959-1.325-1.579l2.142-3.152a.29.29,0,0,0-.125-.429l-.216-.093.785-1.1a.29.29,0,0,0-.033-.375l-.983-.967a.29.29,0,0,0-.44.04l-.706,1,.066-1.111a.29.29,0,0,0-.268-.306l-1.4-.1a.29.29,0,0,0-.311.279l-.1,2.875-.312.07a.29.29,0,0,0-.223.244l-.278,2.088c-1.219-.347-1.948-.32-2.169.081-.055,0-.107.007-.159.012a4.405,4.405,0,0,0-.547-1.006,5.528,5.528,0,0,0-2.074-1.691c-.028-.758-1.509-1.072-2.427-1.194l.713-2.571a.29.29,0,0,0-.107-.311L50.2,9.617a.291.291,0,0,0,.005-.055V6.589a.29.29,0,0,0-.29-.29H48.554l-.128-1.045a.29.29,0,0,0-.394-.234l-1.586.625a.29.29,0,0,0-.177.33l.37,1.744h-.374a.29.29,0,0,0-.285.344l.894,4.71a6.389,6.389,0,0,0-1.428.358c-.553.224-.839.5-.851.834a5.529,5.529,0,0,0-2.075,1.691,4.371,4.371,0,0,0-.839,2.616C41.682,21.068,43.313,22.01,44.889,22.921ZM61.15,12.139l.563.554L61,13.7l-.206-.089a.29.29,0,0,0-.349.1l-1.581,2.165.086-.6Zm-2.33-.528.817.06-.1,1.762-.5.715a.286.286,0,0,0-.295-.115Zm-.966,5.426a.2.2,0,0,0,.013-.056l.3-2.225.285-.064-.325,2.246a.29.29,0,0,0,.521.212l2.132-2.919.206.089h0l.224.1L59.09,17.534l-.01.016,0,0h0a.447.447,0,0,1-.148.128.7.7,0,0,1-.617-.033C57.779,17.419,57.833,17.107,57.853,17.038Zm-.591.112a1.173,1.173,0,0,0,.821,1.032,1.531,1.531,0,0,0,.607.137,1.059,1.059,0,0,0,.7-.25,2.942,2.942,0,0,1,1.117.941,4.578,4.578,0,0,1-2.618-.555,4.6,4.6,0,0,1-2.2-1.518A3.324,3.324,0,0,1,57.262,17.15ZM55.3,18.272a4.594,4.594,0,0,0-.117-1.043h0a5.608,5.608,0,0,0,2.474,1.757,8.286,8.286,0,0,0,2.07.618,3.363,3.363,0,0,0,.442.032,1.582,1.582,0,0,0,.469-.061,4.269,4.269,0,0,1,.7,1.118,1.977,1.977,0,0,1-.917.252,3.532,3.532,0,0,1-1.564-.245.29.29,0,1,0-.229.532,4.015,4.015,0,0,0,1.551.3c.094,0,.188,0,.281-.01a2.809,2.809,0,0,0,1.056-.263,2.965,2.965,0,0,1-.183,1.828c-.765,1.775-2,1.914-3.436,2.074a6.241,6.241,0,0,0-2.455.625A5.292,5.292,0,0,0,54.232,27.1a3.756,3.756,0,0,0,.116-2.156,5.365,5.365,0,0,0-.8-1.12,13.781,13.781,0,0,1-.894-1.161A5.073,5.073,0,0,0,55.3,18.272ZM49.623,6.879V9.2a.29.29,0,0,0-.423.178l-.185.7-.39-3.194ZM47.9,5.7l.719,5.882-.047.175-.722-3.8a.29.29,0,0,0-.285-.236h-.33l-.344-1.624ZM46.615,8.3h.708l.907,4.778a.29.29,0,0,0,.29.283h0a.3.3,0,0,0,.054-.005.29.29,0,0,0,.234-.257l.376-1.418h0l.463-1.743.41.3L49.3,12.991a.289.289,0,0,0-.01.059c0,.022-.044.54-.886.54-.787,0-.88-.5-.887-.553,0-.008,0-.015,0-.023ZM47,13.339a1.378,1.378,0,0,0,1.4.83,1.353,1.353,0,0,0,1.411-.833c1.317.166,1.959.506,2,.65a.033.033,0,0,1,0,.01l-.007.014v0c-.044.073-.24.25-.835.42a10.682,10.682,0,0,1-4.942,0c-.587-.167-.786-.342-.834-.416l0-.008-.009-.017a.025.025,0,0,1,0-.006c.021-.109.514-.463,1.824-.649Zm-3.986,2.624a3.153,3.153,0,0,0,1.1.876A4.914,4.914,0,0,0,46.3,17.4a.29.29,0,0,0,0-.58,4.38,4.38,0,0,1-1.921-.5,2.351,2.351,0,0,1-.975-.821A5.33,5.33,0,0,1,44.84,14.49c.593.555,2.167.813,3.651.813s3.058-.258,3.651-.813a4.467,4.467,0,0,1,2.366,2.492.275.275,0,0,0,.051.161,3.959,3.959,0,0,1,.161,1.129,4.632,4.632,0,0,1-2.609,4.051l-.008,0-.007,0c-.436.266-.878.494-1.283.7a6.565,6.565,0,0,0-1.436.88,5.516,5.516,0,0,0-.954,2.845,7.638,7.638,0,0,0-.789-2.426,7.658,7.658,0,0,0-2.456-1.914c-1.5-.867-2.917-1.686-2.917-4.148A3.82,3.82,0,0,1,43.012,15.964Z" transform="translate(-41.682 -4.999)" fill="#c20890"/>
    </g>
</svg>
