<svg xmlns="http://www.w3.org/2000/svg" width="16.373" height="20.798" viewBox="0 0 16.373 20.798">
    <path d="M358.062,23.536a.744.744,0,0,1-.744-.744,7.765,7.765,0,0,0-2.289-5.526.744.744,0,0,1,1.052-1.052,9.242,9.242,0,0,1,2.725,6.578.744.744,0,0,1-.744.744Zm0,0" transform="translate(-342.434 -15.437)" fill="#e51422"/>
    <path d="M.744,23.536A.744.744,0,0,1,0,22.792a9.242,9.242,0,0,1,2.725-6.578.744.744,0,1,1,1.052,1.052,7.764,7.764,0,0,0-2.288,5.526.744.744,0,0,1-.744.744Zm0,0" transform="translate(0 -15.437)" fill="#e51422"/>
    <path d="M35.755,14.5a6.132,6.132,0,0,1-1.771-4.393V7.715a5.8,5.8,0,0,0-4.465-5.932V.858a.752.752,0,1,0-1.488,0v.926a5.8,5.8,0,0,0-4.465,5.932v2.39a6.138,6.138,0,0,1-1.777,4.4,1.6,1.6,0,0,0-.456,1.139,1.413,1.413,0,0,0,1.3,1.5h12.28a1.413,1.413,0,0,0,1.3-1.5,1.606,1.606,0,0,0-.462-1.146Zm0,0" transform="translate(-20.588 0)" fill="#e51422"/>
    <path d="M159.023,450.233A2.8,2.8,0,0,0,161.758,448h-5.469a2.8,2.8,0,0,0,2.734,2.233Zm0,0" transform="translate(-150.837 -429.435)" fill="#e51422"/>
</svg>
