<svg xmlns="http://www.w3.org/2000/svg" width="28.605" height="35.756" viewBox="0 0 28.605 35.756">
    <path d="M13.151,28.029h14.3a1.788,1.788,0,0,1,0,3.576H11.363a1.788,1.788,0,0,1-1.788-1.788V6.576H7.788A1.788,1.788,0,1,1,7.788,3h3.576a1.788,1.788,0,0,1,1.788,1.788V8.366l.131,0H30.9A3.641,3.641,0,0,1,34.6,11.939a3.483,3.483,0,0,1-.089.776l-2.058,8.939a3.678,3.678,0,0,1-3.619,2.8H13.282l-.131,0Zm-.894,10.727a2.682,2.682,0,1,1,2.682-2.682A2.682,2.682,0,0,1,12.257,38.756Zm16.09,0a2.682,2.682,0,1,1,2.682-2.682A2.682,2.682,0,0,1,28.348,38.756Zm-15.2-26.817v8.939H28.939l2.091-8.939Z" transform="translate(-6 -3)" fill="#604fa4" fill-rule="evenodd"/>
</svg>
