<svg xmlns="http://www.w3.org/2000/svg" width="49.133" height="37.903" viewBox="0 0 49.133 37.903">
    <g transform="translate(0 0)">
        <path d="M275.753,99.048l14.74-14L281.3,75.366Zm11.407-14.09L279.848,91.9,282.6,80.158Z" transform="translate(-241.36 -71.143)" fill="#604fa4"/>
        <path d="M216.9,46.214l-.052-.013-13.062-3.059-.048.2,7.992,24.947Zm-9.721.146,6.886,1.612-2.69,11.486Z" transform="translate(-178.314 -42.982)" fill="#604fa4"/>
        <path d="M87.325,45.979l.47,1.468L108.569,68.22l.013-.04-8.429-26.311Zm3.646,1.308,7.655-2.452,4.764,14.871Z" transform="translate(-76.461 -41.869)" fill="#604fa4"/>
        <path d="M33.264,109.535l.071-.07-.037-.036L9.524,86.4l-.023.022L0,95.627,23.81,118.69Zm-23.74-19.9L30,109.465l-6.189,6L3.335,95.627Z" transform="translate(0 -80.787)" fill="#604fa4"/>
        <path d="M175.136,260.057a2.064,2.064,0,1,1-2.064,2.064A2.064,2.064,0,0,1,175.136,260.057Z" transform="translate(-151.431 -233.375)" fill="#604fa4"/>
    </g>
</svg>
