<svg xmlns="http://www.w3.org/2000/svg" width="38.58" height="38.579" viewBox="0 0 38.58 38.579">
    <path d="M24.613,38.584h-.288a18.74,18.74,0,0,1-9.063-2.631,33.765,33.765,0,0,1-7.134-5.57C2.783,25.036.049,19.611,0,14.259c-.03-3.392.355-8.327,4.033-12A7.262,7.262,0,0,1,9.082.005h.061a6.135,6.135,0,0,1,5.334,3.144l1.229,2.188.021.044a8.807,8.807,0,0,1,.991,3.241,4.323,4.323,0,0,1-1.29,3.459L12.013,15.62a19.49,19.49,0,0,0,4.274,6.9,18.628,18.628,0,0,0,6.784,4.171l3.423-3.552a4.368,4.368,0,0,1,3.38-1.358,8.091,8.091,0,0,1,3.371,1.07l.045.024,2.145,1.205A6.135,6.135,0,0,1,38.58,29.43v.053a7.259,7.259,0,0,1-2.249,5.042,13.233,13.233,0,0,1-5.986,3.381,21.719,21.719,0,0,1-5.731.678ZM9.142,3.019H9.1A4.28,4.28,0,0,0,6.166,4.386c-2.876,2.876-3.176,7-3.15,9.847.04,4.534,2.477,9.25,7.244,14.017,4.816,4.816,9.558,7.279,14.093,7.319,2.839.025,6.949-.277,9.847-3.175a4.28,4.28,0,0,0,1.367-2.939v-.036a3.117,3.117,0,0,0-1.607-2.708l-2.123-1.192c-2.093-1.08-2.694-.757-3.2-.253L23.99,30.085l-.846-.212a21.4,21.4,0,0,1-8.986-5.217l0,0a22.332,22.332,0,0,1-5.312-9.038l-.221-.823,4.661-4.832c.44-.441.783-1.055-.255-3.234l-1.181-2.1A3.12,3.12,0,0,0,9.142,3.019ZM33.283,5.3A17.965,17.965,0,0,0,20.5.005V3.019a15.087,15.087,0,0,1,15.07,15.07h3.014A17.965,17.965,0,0,0,33.283,5.3ZM20.5,12.061v3.014a3.017,3.017,0,0,1,3.014,3.014h3.014A6.035,6.035,0,0,0,20.5,12.061Zm0-6.028V9.047a9.052,9.052,0,0,1,9.042,9.042h3.014A12.069,12.069,0,0,0,20.5,6.033Z" transform="translate(0 -0.005)" fill="#604fa4"/>
</svg>
