<svg xmlns="http://www.w3.org/2000/svg" width="54.501" height="38.195" viewBox="0 0 54.501 38.195">
    <g transform="translate(0 0)">
        <path d="M52.651,84.027,48.94,82.421l-3.151-6.133a4.963,4.963,0,0,0-4.466-2.713H35.9V72.042A5.006,5.006,0,0,0,30.907,67H4.965A4.993,4.993,0,0,0,0,72.042V95.526c-.024,1.691,1.375,3.853,3.066,3.877h.624c0,.122.009-.6.009-.531a6.3,6.3,0,1,0,12.606.049V98.86c0-.085.012.612,0,.49H37.259v-.49a6.3,6.3,0,1,0,12.606.049V99.4l1.582-.053c1.691,0,3.054-2.121,3.054-3.812V86.85A3.051,3.051,0,0,0,52.651,84.027ZM10.015,102.778a3.869,3.869,0,1,1,3.869-3.869A3.864,3.864,0,0,1,10.015,102.778Zm23.447-8.151L15.722,96.219a6.295,6.295,0,0,0-11.413,0H4.059c-.377,0-.368-.316-.368-.694V89.252l29.771.032ZM32.5,72.054v13.5H3.691V72.042c0-1.424,2-1.643,3.422-1.643H30.907c1.424.012,1.6.244,1.589,1.655ZM35.9,77.4l5.427-1.375A2.568,2.568,0,0,1,43.635,77.4l2.154,3.892H35.9Zm7.678,25.382a3.869,3.869,0,1,1,3.869-3.869A3.864,3.864,0,0,1,43.574,102.778Zm7.873-7.24a.737.737,0,0,1-.745.681H49.281a6.3,6.3,0,0,0-11.413,0l-1.4-1.593V85.554L47.82,84.538l2.044,1.017c.243.122,1.594,1.028,1.582,1.3Z" transform="translate(0 -67.004)" fill="#604fa4"/>
    </g>
</svg>
