<svg xmlns="http://www.w3.org/2000/svg" width="36.033" height="37.367" viewBox="0 0 36.033 37.367">
    <g transform="translate(0 0)">
        <g transform="translate(0 0)">
            <g transform="translate(0 0)">
                <path d="M44.191,19.3a1.134,1.134,0,0,1,0-1.241l1.37-2.1a3.571,3.571,0,0,0-1.726-5.291L41.49,9.781a1.139,1.139,0,0,1-.732-1l-.129-2.5a3.589,3.589,0,0,0-4.518-3.27l-2.426.65A1.146,1.146,0,0,1,32.5,3.275L30.92,1.329a3.6,3.6,0,0,0-5.585,0L23.756,3.275a1.145,1.145,0,0,1-1.185.383l-2.426-.65a3.589,3.589,0,0,0-4.518,3.27l-.129,2.5a1.139,1.139,0,0,1-.732,1l-2.346.895a3.571,3.571,0,0,0-1.726,5.291l1.37,2.1a1.134,1.134,0,0,1,0,1.241l-1.37,2.1a3.571,3.571,0,0,0,1.726,5.291l2.346.895a1.139,1.139,0,0,1,.732,1l.129,2.5a3.589,3.589,0,0,0,4.518,3.27l2.426-.65a1.146,1.146,0,0,1,1.185.383l1.579,1.946a3.6,3.6,0,0,0,5.585,0L32.5,34.094a1.146,1.146,0,0,1,1.185-.383l2.426.65a3.589,3.589,0,0,0,4.518-3.27l.129-2.5a1.139,1.139,0,0,1,.732-1l2.346-.895A3.571,3.571,0,0,0,45.562,21.4Zm-1.231,5.11-2.346.895a3.58,3.58,0,0,0-2.3,3.156l-.129,2.5A1.141,1.141,0,0,1,36.746,32l-2.426-.65a3.6,3.6,0,0,0-3.725,1.206l-1.579,1.946a1.145,1.145,0,0,1-1.776,0L25.66,32.56a3.6,3.6,0,0,0-3.725-1.206L19.509,32a1.141,1.141,0,0,1-1.437-1.04l-.129-2.5a3.58,3.58,0,0,0-2.3-3.156l-2.346-.895a1.135,1.135,0,0,1-.549-1.682l1.37-2.1a3.567,3.567,0,0,0,0-3.9l-1.37-2.1a1.135,1.135,0,0,1,.549-1.683l2.346-.895a3.58,3.58,0,0,0,2.3-3.156l.129-2.5a1.141,1.141,0,0,1,1.437-1.04l2.426.65A3.6,3.6,0,0,0,25.66,4.808l1.579-1.946a1.145,1.145,0,0,1,1.776,0l1.579,1.946A3.6,3.6,0,0,0,34.32,6.014l2.426-.65A1.141,1.141,0,0,1,38.183,6.4l.129,2.5a3.58,3.58,0,0,0,2.3,3.156l2.346.895a1.136,1.136,0,0,1,.549,1.682l-1.37,2.1a3.567,3.567,0,0,0,0,3.9l1.37,2.1A1.136,1.136,0,0,1,42.96,24.415Z" transform="translate(-10.111 -0.001)" fill="#604fa4"/>
            </g>
        </g>
        <g transform="translate(10.528 11.989)">

                <path d="M168.689,166.315a1.241,1.241,0,0,0-1.754,0l-11.578,11.578a1.24,1.24,0,1,0,1.754,1.754l11.578-11.578A1.24,1.24,0,0,0,168.689,166.315Z" transform="translate(-154.993 -165.951)" fill="#604fa4"/>

        </g>
        <g transform="translate(10.594 12.08)">
            <g transform="translate(0)">
                <path d="M157.474,165.95a2.481,2.481,0,1,0,2.481,2.481A2.484,2.484,0,0,0,157.474,165.95Z" transform="translate(-154.993 -165.95)" fill="#604fa4"/>
            </g>
        </g>
        <g transform="translate(19.554 21.001)">

                <path d="M280.019,288.495a2.481,2.481,0,1,0,2.481,2.481A2.484,2.484,0,0,0,280.019,288.495Z" transform="translate(-277.538 -288.495)" fill="#604fa4"/>

        </g>
    </g>
</svg>
